<svg width="27" height="29" viewBox="0 0 27 29"  xmlns="http://www.w3.org/2000/svg">
    <g filter="url(#filter0_d_70_2)">
        <path d="M22.1804 20.1228L20.9026 5.89192C20.8677 5.50329 20.542 5.2056 20.1519 5.2056H17.5166V4.01709C17.5166 1.80207 15.7147 0 13.4998 0C11.2849 0 9.48316 1.80207 9.48316 4.01709V5.2056H6.84614C6.456 5.2056 6.13028 5.50329 6.09541 5.89192L4.81252 20.1788C4.79363 20.3897 4.86418 20.5986 5.00699 20.7548C5.1498 20.911 5.35171 20.9999 5.56326 20.9999H21.4348C21.4354 20.9999 21.4362 20.9999 21.4368 20.9999C21.8532 20.9999 22.1906 20.6624 22.1906 20.2461C22.1905 20.2042 22.1871 20.1629 22.1804 20.1228ZM10.9907 4.01709C10.9907 2.6333 12.1163 1.5075 13.4999 1.5075C14.8835 1.5075 16.0092 2.6333 16.0092 4.01709V5.2056H10.9907V4.01709ZM6.38776 19.4925L7.53527 6.71311H9.48316V8.06101C9.48316 8.47728 9.82054 8.81476 10.2369 8.81476C10.6533 8.81476 10.9907 8.47728 10.9907 8.06101V6.71311H16.0092V8.06101C16.0092 8.47728 16.3466 8.81476 16.763 8.81476C17.1794 8.81476 17.5167 8.47728 17.5167 8.06101V6.71311H19.4628L20.6103 19.4925H6.38776Z"/>
    </g>
    <defs>
        <filter id="filter0_d_70_2" x="-1" y="0" width="29" height="29" filterUnits="userSpaceOnUse" color-interpolation-filters="sRGB">
            <feColorMatrix type="matrix" values="0 0 0 0 0 0 0 0 0 0 0 0 0 0 0 0 0 0 0.25 0"/>
            <feBlend mode="normal" in2="BackgroundImageFix" result="effect1_dropShadow_70_2"/>
            <feBlend mode="normal" in="SourceGraphic" in2="effect1_dropShadow_70_2" result="shape"/>
        </filter>
    </defs>
</svg>
