<svg width="20" height="20" viewBox="0 0 20 20" fill="none" xmlns="http://www.w3.org/2000/svg">
<g clip-path="url(#clip0_129_545)">
<path d="M10.7804 15.5556L19.6805 6.65536C19.8865 6.44951 20 6.17472 20 5.88171C20 5.58871 19.8865 5.31391 19.6805 5.10806L19.0252 4.45262C18.5982 4.02612 17.9042 4.02612 17.4779 4.45262L10.0041 11.9264L2.52209 4.44433C2.31608 4.23847 2.04145 4.12482 1.74861 4.12482C1.45544 4.12482 1.1808 4.23847 0.974627 4.44433L0.31951 5.09977C0.113497 5.30578 2.38419e-06 5.58041 2.38419e-06 5.87342C2.38419e-06 6.16643 0.113497 6.44122 0.31951 6.64707L9.22773 15.5556C9.4344 15.762 9.71033 15.8753 10.0037 15.8746C10.2981 15.8753 10.5739 15.762 10.7804 15.5556Z" fill="#A04955"/>
</g>
<defs>
<clipPath id="clip0_129_545">
<rect width="20" height="20" fill="white" transform="translate(20 -0.000244141) rotate(90)"/>
</clipPath>
</defs>
</svg>
