<svg width="30" height="31" viewBox="0 0 30 31" fill="none" xmlns="http://www.w3.org/2000/svg">
<g clip-path="url(#clip0_159_2)">
<path d="M29.6965 7.13272L18.0126 0.670781C17.837 0.573729 17.6241 0.573729 17.4486 0.670781L13.0447 3.10631C12.9517 3.13098 12.865 3.17801 12.7931 3.24555L5.76485 7.13272C5.5774 7.23623 5.4609 7.43448 5.4609 7.65003V15.4654C4.27529 15.8389 3.18879 16.4975 2.28539 17.4076C-0.0693486 19.779 -0.669706 23.396 0.791476 26.4079C0.933383 26.7007 1.28426 26.8221 1.57494 26.679C1.86585 26.5358 1.98624 26.1824 1.84433 25.8897C0.602878 23.3306 1.11306 20.2574 3.11394 18.2421C4.36524 16.9818 6.02875 16.2877 7.79824 16.2877C9.56773 16.2877 11.2312 16.9818 12.4825 18.2421C13.7336 19.5022 14.4228 21.1777 14.4228 22.9599C14.4228 24.7421 13.7336 26.4176 12.4823 27.6779C10.4814 29.6931 7.4302 30.207 4.88938 28.9566C4.5987 28.8134 4.24782 28.9349 4.10592 29.2277C3.96378 29.5207 4.08417 29.8741 4.37508 30.017C5.46433 30.5532 6.633 30.8137 7.7932 30.8137C9.81721 30.8135 11.8142 30.02 13.3111 28.5124C13.9975 27.821 14.54 27.0234 14.9238 26.1564L17.4486 27.5527C17.5365 27.6013 17.6335 27.6255 17.7306 27.6255C17.8276 27.6255 17.9249 27.6013 18.0126 27.5527L29.6965 21.091C29.884 20.9872 30.0005 20.789 30.0005 20.5737V16.4723C30.0005 16.1464 29.7382 15.8822 29.4145 15.8822C29.0909 15.8822 28.8286 16.1464 28.8286 16.4723V20.2244L18.3183 26.0372V14.4601L21.787 12.5416V15.5827C21.787 15.7916 21.8964 15.9848 22.0747 16.0908C22.1668 16.1455 22.2698 16.1729 22.373 16.1729C22.47 16.1729 22.5673 16.1487 22.6554 16.0998L25.1592 14.7118C25.3464 14.6081 25.4624 14.41 25.4624 14.195V10.5088L28.8286 8.64729V11.7514C28.8286 12.0773 29.0909 12.3415 29.4145 12.3415C29.7382 12.3415 30.0005 12.0773 30.0005 11.7514V7.65003C30.0005 7.43471 29.884 7.23623 29.6965 7.13272ZM17.7306 1.86123L28.1971 7.65003L24.8955 9.47604L14.4289 3.68724L17.7306 1.86123ZM17.7306 13.4386L7.26403 7.65003L10.6867 5.75693L21.1535 11.5455L17.7306 13.4386ZM22.3707 10.8724L11.9042 5.08379L13.2115 4.36062L23.6783 10.1492L22.3707 10.8724ZM13.3111 17.4076C11.8385 15.9244 9.88061 15.1076 7.79824 15.1076C7.40433 15.1076 7.01523 15.1369 6.63277 15.1943V8.64729L17.1467 14.4621V26.0393L15.3218 25.03C15.5015 24.3638 15.5944 23.669 15.5944 22.9599C15.5944 20.8625 14.7835 18.8906 13.3111 17.4076ZM24.2908 13.8462L22.9589 14.5845V11.8936L24.2908 11.1571V13.8462Z" fill="#333333"/>
<path d="M29.4141 13.518C29.26 13.518 29.1087 13.5811 28.9998 13.6909C28.8908 13.8006 28.8281 13.9528 28.8281 14.1081C28.8281 14.2633 28.8908 14.4154 28.9998 14.5252C29.1087 14.6351 29.26 14.6981 29.4141 14.6981C29.5681 14.6981 29.7194 14.6351 29.8283 14.5252C29.9373 14.4154 30 14.2633 30 14.1081C30 13.9528 29.9373 13.8006 29.8283 13.6909C29.7194 13.5811 29.5681 13.518 29.4141 13.518Z" fill="#333333"/>
<path d="M5.82747 23.5492C5.97738 23.5492 6.12753 23.4916 6.24174 23.3765C6.47062 23.146 6.47062 22.7723 6.24174 22.5418L5.83593 22.1328H9.29892C10.1389 22.1328 10.8224 22.8212 10.8224 23.6672C10.8224 24.5133 10.1389 25.2016 9.29892 25.2016H7.24699C6.92335 25.2016 6.66105 25.4658 6.66105 25.7918C6.66105 26.1175 6.92335 26.3817 7.24699 26.3817H9.29892C10.785 26.3817 11.9942 25.1641 11.9942 23.6672C11.9942 22.1704 10.785 20.9528 9.29892 20.9528H5.83593L6.24174 20.5438C6.47062 20.3133 6.47062 19.9396 6.24174 19.7091C6.01309 19.4788 5.64207 19.4788 5.41319 19.7091L4.00694 21.1254C3.77829 21.356 3.77829 21.7297 4.00694 21.9602L5.41319 23.3763C5.52763 23.4916 5.67755 23.5492 5.82747 23.5492Z" fill="#333333"/>
<path d="M2.69958 28.6854C2.53296 28.6854 2.36748 28.614 2.25189 28.4754L2.25075 28.474C2.04246 28.2246 2.07451 27.8525 2.32216 27.6427C2.56981 27.4327 2.93945 27.465 3.14773 27.7144C3.35579 27.9641 3.32443 28.3369 3.07678 28.5466C2.96669 28.6398 2.83279 28.6854 2.69958 28.6854Z" fill="#333333"/>
</g>
<defs>
<clipPath id="clip0_159_2">
<rect width="30" height="30.2158" fill="white" transform="translate(0 0.597107)"/>
</clipPath>
</defs>
</svg>
