<svg width="35" height="35" viewBox="0 0 35 35" fill="none" xmlns="http://www.w3.org/2000/svg">
<g clip-path="url(#clip0_159_8)">
<path d="M30.1 0H4.3C1.92855 0 0 1.92855 0 4.3V30.1C0 32.4715 1.92855 34.4 4.3 34.4H30.1C32.4715 34.4 34.4 32.4715 34.4 30.1V4.3C34.4 1.92855 32.4715 0 30.1 0Z" fill="#1976D2"/>
<path d="M29.0249 17.2H23.6499V12.9C23.6499 11.7132 24.6131 11.825 25.7999 11.825H27.9499V6.45001H23.6499C20.0874 6.45001 17.1999 9.33746 17.1999 12.9V17.2H12.8999V22.575H17.1999V34.4H23.6499V22.575H26.8749L29.0249 17.2Z" fill="#FAFAFA"/>
</g>
<defs>
<clipPath id="clip0_159_8">
<rect width="34.4" height="34.4" fill="white"/>
</clipPath>
</defs>
</svg>
