<svg width="30" height="30" viewBox="0 0 30 30" fill="none" xmlns="http://www.w3.org/2000/svg">
<path d="M22.0312 1.75781C20.4033 1.75781 18.9108 2.27367 17.5953 3.29109C16.3341 4.2665 15.4944 5.50887 15 6.41227C14.5056 5.50881 13.6659 4.2665 12.4047 3.29109C11.0892 2.27367 9.59666 1.75781 7.96875 1.75781C3.42586 1.75781 0 5.47365 0 10.4012C0 15.7247 4.274 19.3669 10.7443 24.8808C11.843 25.8172 13.0884 26.8785 14.3829 28.0105C14.5535 28.1599 14.7727 28.2422 15 28.2422C15.2273 28.2422 15.4465 28.1599 15.6171 28.0106C16.9117 26.8784 18.157 25.8171 19.2564 24.8802C25.726 19.3669 30 15.7247 30 10.4012C30 5.47365 26.5741 1.75781 22.0312 1.75781Z" fill="#B93B54"/>
</svg>
