<svg width="35" height="35" viewBox="0 0 35 35" fill="none" xmlns="http://www.w3.org/2000/svg">
<g clip-path="url(#clip0_159_55)">
<path d="M17.6001 34.4001C27.0992 34.4001 34.7998 26.6995 34.7998 17.2004C34.7998 7.70128 27.0992 0.000717163 17.6001 0.000717163C8.10096 0.000717163 0.400391 7.70128 0.400391 17.2004C0.400391 26.6995 8.10096 34.4001 17.6001 34.4001Z" fill="#CB2027"/>
<path d="M18.9884 23.0325C17.6881 22.9319 17.1417 22.2871 16.1219 21.6681C15.5615 24.6087 14.8765 27.4276 12.8478 28.9002C12.2208 24.4557 13.7669 21.1175 14.485 17.5741C13.2611 15.5137 14.6322 11.3666 17.2137 12.3885C20.3911 13.645 14.4629 20.0496 18.4426 20.8495C22.5974 21.6847 24.2935 13.6404 21.7168 11.0238C17.994 7.24621 10.8806 10.938 11.7553 16.3458C11.9684 17.6679 13.3346 18.0692 12.3011 19.8935C9.91849 19.3658 9.20779 17.4867 9.29916 14.9814C9.44663 10.8807 12.9839 8.00934 16.5319 7.61199C21.019 7.10978 25.2304 9.25966 25.8118 13.4803C26.4657 18.244 23.786 23.4029 18.9884 23.0325Z" fill="#F1F2F2"/>
</g>
<defs>
<clipPath id="clip0_159_55">
<rect width="34.4" height="34.4" fill="white" transform="translate(0.399902)"/>
</clipPath>
</defs>
</svg>
