<svg width="35" height="36" viewBox="0 0 35 36" fill="none" xmlns="http://www.w3.org/2000/svg">
<g clip-path="url(#clip0_168_839)">
<path d="M33.0645 18.4437H30.1222V10.4364C30.1222 9.37093 29.2616 8.50416 28.2038 8.50416H23.7761V6.58445C23.7761 5.55148 22.9417 4.71115 21.9162 4.71115H1.85992C0.834395 4.71115 0 5.55148 0 6.58445V7.41046C0 7.69571 0.229551 7.92684 0.512695 7.92684C0.79584 7.92684 1.02539 7.69571 1.02539 7.41046V6.58445C1.02539 6.12102 1.39979 5.74392 1.85992 5.74392H21.9161C22.3762 5.74392 22.7506 6.12102 22.7506 6.58445V22.848H1.02539V9.83161C1.02539 9.54636 0.79584 9.31523 0.512695 9.31523C0.229551 9.31523 0 9.54636 0 9.83161V27.3356C0 28.3686 0.834395 29.2089 1.85992 29.2089H3.03816C3.29595 30.6245 4.52983 31.7006 6.00865 31.7006C7.48747 31.7006 8.72136 30.6245 8.97914 29.2089H17.1349C17.418 29.2089 17.6476 28.9778 17.6476 28.6926C17.6476 28.4073 17.418 28.1762 17.1349 28.1762H8.99056C8.76025 26.7275 7.51078 25.6172 6.00858 25.6172C4.50639 25.6172 3.25698 26.7276 3.02668 28.1762H1.85992C1.39979 28.1762 1.02539 27.7991 1.02539 27.3357V23.8808H22.7506V28.1762H19.4865C19.2034 28.1762 18.9738 28.4074 18.9738 28.6926C18.9738 28.9779 19.2034 29.209 19.4865 29.209H26.1356C26.3933 30.6246 27.6272 31.7007 29.106 31.7007C30.5847 31.7007 31.8187 30.6246 32.0765 29.209H33.0815C34.1394 29.209 34.9999 28.3422 34.9999 27.2768V20.3932C35 19.3182 34.1318 18.4437 33.0645 18.4437ZM6.00858 26.65C7.10842 26.65 8.00317 27.5512 8.00317 28.659C8.00317 29.7667 7.10842 30.668 6.00858 30.668C4.90875 30.668 4.01399 29.7667 4.01399 28.659C4.01399 27.5512 4.90882 26.65 6.00858 26.65ZM29.1061 30.6679C28.0062 30.6679 27.1115 29.7666 27.1115 28.6589C27.1115 27.5511 28.0062 26.65 29.1061 26.65C30.2059 26.65 31.1006 27.5511 31.1006 28.6589C31.1006 29.7666 30.2059 30.6679 29.1061 30.6679ZM33.9746 23.1929H32.6102C32.3276 23.1929 32.0975 22.9613 32.0975 22.6766C32.0975 22.3918 32.3275 22.1602 32.6102 22.1602H33.9746V23.1929ZM33.9746 21.1274H32.6102C31.7622 21.1274 31.0721 21.8224 31.0721 22.6766C31.0721 23.5307 31.7621 24.2257 32.6102 24.2257H33.9746V27.2767C33.9746 27.7727 33.574 28.1762 33.0816 28.1762H32.088C31.8577 26.7275 30.6083 25.6172 29.1061 25.6172C27.6039 25.6172 26.3545 26.7275 26.1241 28.1762H23.776V9.53693H28.2037C28.6962 9.53693 29.0968 9.9404 29.0968 10.4364V10.5567H25.6642C25.3811 10.5567 25.1515 10.7878 25.1515 11.0731V18.9601C25.1515 19.2454 25.3811 19.4765 25.6642 19.4765H33.0645C33.5663 19.4765 33.9745 19.8877 33.9745 20.3931V21.1274H33.9746ZM29.0968 11.5895V18.4437H26.177V11.5895H29.0968Z" fill="#333333"/>
<path d="M26.8494 21.1274H25.6641C25.3809 21.1274 25.1514 21.3585 25.1514 21.6438C25.1514 21.929 25.3809 22.1602 25.6641 22.1602H26.8494C27.1326 22.1602 27.3621 21.929 27.3621 21.6438C27.3621 21.3585 27.1326 21.1274 26.8494 21.1274Z" fill="#333333"/>
<path d="M14.8953 13.1414C15.1784 13.1414 15.4079 12.9103 15.4079 12.6251C15.4079 12.3398 15.1784 12.1087 14.8953 12.1087H12.8457C12.5626 12.1087 12.333 12.3398 12.333 12.6251V16.755C12.333 17.0402 12.5626 17.2713 12.8457 17.2713H14.8953C15.1784 17.2713 15.4079 17.0402 15.4079 16.755C15.4079 16.4697 15.1784 16.2386 14.8953 16.2386H13.3584V15.2064H14.8953C15.1784 15.2064 15.4079 14.9753 15.4079 14.69C15.4079 14.4048 15.1784 14.1737 14.8953 14.1737H13.3584V13.1414H14.8953Z" fill="#333333"/>
<path d="M18.927 13.1414C19.2102 13.1414 19.4397 12.9103 19.4397 12.6251C19.4397 12.3398 19.2102 12.1087 18.927 12.1087H16.8774C16.5943 12.1087 16.3647 12.3398 16.3647 12.6251V16.755C16.3647 17.0402 16.5943 17.2713 16.8774 17.2713H18.927C19.2102 17.2713 19.4397 17.0402 19.4397 16.755C19.4397 16.4697 19.2102 16.2386 18.927 16.2386H17.3901V15.2064H18.927C19.2102 15.2064 19.4397 14.9753 19.4397 14.69C19.4397 14.4048 19.2102 14.1737 18.927 14.1737H17.3901V13.1414H18.927Z" fill="#333333"/>
<path d="M6.89818 13.1414C7.18133 13.1414 7.41088 12.9103 7.41088 12.6251C7.41088 12.3398 7.18133 12.1087 6.89818 12.1087H4.84863C4.56549 12.1087 4.33594 12.3398 4.33594 12.6251V16.755C4.33594 17.0402 4.56549 17.2713 4.84863 17.2713C5.13178 17.2713 5.36133 17.0402 5.36133 16.755V15.2064H6.89818C7.18133 15.2064 7.41088 14.9753 7.41088 14.69C7.41088 14.4048 7.18133 14.1737 6.89818 14.1737H5.36133V13.1414H6.89818Z" fill="#333333"/>
<path d="M11.3757 14.6901V12.6251C11.3757 12.3399 11.1462 12.1087 10.863 12.1087H8.81348C8.53033 12.1087 8.30078 12.3399 8.30078 12.6251V16.755C8.30078 17.0403 8.53033 17.2714 8.81348 17.2714C9.09662 17.2714 9.32617 17.0403 9.32617 16.755V15.3646L10.4365 17.0415C10.5352 17.1908 10.6978 17.2715 10.8635 17.2715C10.9613 17.2715 11.06 17.2434 11.1475 17.1846C11.383 17.0264 11.4467 16.7058 11.2896 16.4685L10.454 15.2065H10.863C11.1462 15.2065 11.3757 14.9753 11.3757 14.6901ZM10.3503 14.1737H9.32617V13.1415H10.3503V14.1737Z" fill="#333333"/>
</g>
<defs>
<clipPath id="clip0_168_839">
<rect width="35" height="35.2518" fill="white" transform="translate(0 0.580017)"/>
</clipPath>
</defs>
</svg>
