<svg width="35" height="35" viewBox="0 0 35 35" fill="none" xmlns="http://www.w3.org/2000/svg">
<g clip-path="url(#clip0_159_97)">
<path d="M32.6386 2.3615C29.4899 -0.787176 24.3852 -0.787176 21.2365 2.36143L14.498 9.09994C11.2411 12.357 11.5426 17.5465 14.498 20.5021C14.9929 20.997 15.5405 21.4005 16.1187 21.7319L17.3485 20.5021C18.1552 19.6953 17.8713 18.7522 17.8567 18.0716C17.6797 17.9461 17.5075 17.8105 17.3485 17.6515C15.8319 16.135 15.7637 13.5353 17.3485 11.9504C17.5839 11.7151 23.9441 5.3549 24.0869 5.21206C25.659 3.63994 28.2158 3.63994 29.788 5.21206C31.3601 6.78418 31.3601 9.341 29.788 10.9131L25.3339 15.3672C25.4627 16.0798 26.2357 17.768 25.8381 20.5528C25.8575 20.5337 25.8807 20.5214 25.9001 20.5021L32.6386 13.7636C35.7871 10.6149 35.7871 5.51017 32.6386 2.3615Z" fill="#333333"/>
<path d="M21.6242 13.3757C21.1294 12.8808 20.5818 12.4773 20.0037 12.1459L18.7738 13.3757C17.967 14.1824 18.251 15.1255 18.2655 15.806C18.4426 15.9316 18.6148 16.0672 18.7738 16.2262C20.2904 17.7428 20.3586 20.3424 18.7738 21.9272C18.5379 22.1631 11.6509 29.0501 11.5131 29.1879C9.94101 30.76 7.38419 30.76 5.81207 29.1879C4.23995 27.6158 4.23995 25.059 5.81207 23.4869L10.7884 18.5105C10.6596 17.7978 9.88659 16.1097 10.2843 13.3249C10.2649 13.344 10.2415 13.3564 10.2221 13.3757L2.9615 20.6364C-0.187038 23.7851 -0.187038 28.8899 2.9615 32.0385C6.11018 35.1871 11.2149 35.1871 14.3636 32.0385L21.6242 24.7779C24.8208 21.5814 24.6461 16.3975 21.6242 13.3757Z" fill="#333333"/>
</g>
<defs>
<clipPath id="clip0_159_97">
<rect width="34.4" height="34.4" fill="white" transform="translate(0.600098)"/>
</clipPath>
</defs>
</svg>
