<svg width="20" height="20" viewBox="0 0 20 20" fill="none" xmlns="http://www.w3.org/2000/svg">
<g clip-path="url(#clip0_129_469)">
<path d="M9.21862 4.44408L0.318533 13.3443C0.112518 13.5502 -0.000976563 13.825 -0.000976563 14.118C-0.000976563 14.411 0.112518 14.6858 0.318533 14.8916L0.973812 15.5471C1.4008 15.9736 2.09478 15.9736 2.52112 15.5471L9.99488 8.07332L17.4769 15.5554C17.6829 15.7612 17.9576 15.8749 18.2504 15.8749C18.5436 15.8749 18.8182 15.7612 19.0244 15.5554L19.6795 14.8999C19.8855 14.6939 19.999 14.4193 19.999 14.1263C19.999 13.8333 19.8855 13.5585 19.6795 13.3526L10.7713 4.44408C10.5646 4.23774 10.2887 4.1244 9.99537 4.12506C9.7009 4.1244 9.42513 4.23774 9.21862 4.44408Z" fill="#A04955"/>
</g>
<defs>
<clipPath id="clip0_129_469">
<rect width="20" height="20" fill="white" transform="translate(-0.000976562 19.9999) rotate(-90)"/>
</clipPath>
</defs>
</svg>
