<svg width="35" height="35" viewBox="0 0 35 35" fill="none" xmlns="http://www.w3.org/2000/svg">
<g clip-path="url(#clip0_159_38)">
<path d="M34.6002 6.53386C33.3209 7.09501 31.9578 7.46696 30.5367 7.64756C31.9987 6.77466 33.1145 5.40296 33.6391 3.74961C32.276 4.56231 30.771 5.13636 29.1671 5.45671C27.8728 4.07856 26.0281 3.22501 24.0157 3.22501C20.1113 3.22501 16.968 6.39411 16.968 10.2792C16.968 10.8382 17.0153 11.3757 17.1314 11.8874C11.2684 11.6014 6.08045 8.79136 2.5953 4.51071C1.98685 5.56636 1.62995 6.77466 1.62995 8.07541C1.62995 10.5178 2.8877 12.6829 4.7625 13.9363C3.62945 13.9148 2.5179 13.5859 1.5762 13.0677C1.5762 13.0892 1.5762 13.1172 1.5762 13.1451C1.5762 16.5722 4.02075 19.4188 7.2264 20.0746C6.65235 20.2315 6.0267 20.3068 5.3774 20.3068C4.9259 20.3068 4.4701 20.281 4.04225 20.1864C4.956 22.9792 7.5489 25.0325 10.632 25.0991C8.2326 26.9761 5.18605 28.107 1.88795 28.107C1.3096 28.107 0.754895 28.0812 0.200195 28.0102C3.32415 30.0248 7.02645 31.175 11.019 31.175C23.9964 31.175 31.0914 20.425 31.0914 11.1069C31.0914 10.7952 31.0806 10.4942 31.0656 10.1953C32.4652 9.20201 33.6413 7.96146 34.6002 6.53386Z" fill="#03A9F4"/>
</g>
<defs>
<clipPath id="clip0_159_38">
<rect width="34.4" height="34.4" fill="white" transform="translate(0.200195)"/>
</clipPath>
</defs>
</svg>
